<?xml version="1.0" encoding="iso-8859-1"?>
<!-- Generator: Adobe Illustrator 23.0.3, SVG Export Plug-In . SVG Version: 6.00 Build 0)  -->
<svg version="1.1" id="Ebene_1" xmlns="http://www.w3.org/2000/svg" xmlns:xlink="http://www.w3.org/1999/xlink" x="0px" y="0px"
	 viewBox="0 0 500 500" style="enable-background:new 0 0 500 500;" xml:space="preserve">
<path style="fill:#FFFFFF;" d="M473.361,414.169c-0.336-1.941-0.052-3.99-0.052-5.989c-0.35-16.004-1.416-31.974-3.478-47.829
	c-4.708-36.19-13.226-71.422-26.504-105.524c-10.323-26.513-22.501-52.046-37.225-76.375c-6.795-11.227-13.688-22.39-21.517-32.912
	l-0.001-0.012l-0.085-0.101c-2.359-3.167-4.795-6.282-7.349-9.315c-0.718-0.853-1.402-1.803-2.303-2.409
	c-0.148-0.099-0.318-0.216-0.501-0.325l-8.28-9.827c-0.027-1.106-1.06-1.979-1.782-2.788c-3.656-4.093-7.281-8.216-10.938-12.309
	l-0.003-0.004l0,0c-3.58-4.006-7.19-7.984-10.894-11.872c-14.93-15.674-31.142-29.952-48.388-43.032
	c-12.652-9.595-25.915-18.301-39.444-26.607c-2.824-1.734-5.376-1.984-8.279,0.113c-3.637,2.627-7.575,4.838-11.384,7.227
	c-24.53,15.389-47.085,33.315-67.936,53.365c-17.673,16.994-33.537,35.566-47.99,55.399c-6.742,9.251-13.174,18.682-19.27,28.312
	l0,0l-0.001,0.002c-10.184,16.088-19.428,32.73-27.602,50.017c-3.394,7.178-6.655,14.436-9.489,22.331L62,245l-6.037,12.936
	c-0.696,0.409-0.877,1.364-1.178,2.113c-1.44,3.588-3.101,7.111-4.232,10.796c-3.583,11.667-7.294,23.294-10.359,35.112
	l-0.005,0.014l0.001,0c-1.037,4-2.001,8.021-2.86,12.073c-1.19,5.617-2.068,11.279-3.253,16.884
	c-2.191,10.367-3.965,20.817-4.762,31.355c-0.836,11.055-1.997,22.089-2.783,33.151c-0.61,8.586,0.796,10.784,8.052,14.582
	c19.322,10.111,38.828,19.867,59.141,28.007c20.119,8.062,40.844,13.835,61.809,18.994c20.172,4.964,40.885,6.697,61.253,10.447
	c15.97,2.94,32.142,1.309,47.805,2.979c4.83-0.283,9.318-0.843,13.791-0.743c2.447,0.054,4.889,0.013,7.328-0.071l0,0h0
	c5.668-0.195,11.322-0.645,16.988-0.839c1.849-0.064,3.694-0.263,5.537-0.504L313,472l26-3l0.883-1.19
	c19.784-3.905,39.51-8.112,58.791-14.085c23.318-7.224,45.559-17.111,67.598-27.539
	C471.867,423.538,474.418,420.284,473.361,414.169z"/>
<g>
	<path style="fill:#00648C;" d="M473.308,408.18c0,1.999-0.283,4.048,0.052,5.989c1.057,6.115-1.494,9.369-7.089,12.017
		c-22.039,10.428-44.28,20.315-67.598,27.539c-19.687,6.099-39.839,10.359-60.043,14.334c-2.476,0.487-5.73,1.77-7.513-0.308
		c-1.858-2.165,0.895-4.553,1.822-6.669c16.207-36.985,28.202-75.284,36.275-114.837c6.484-31.768,10.117-63.831,11.25-96.25
		c1.302-37.235-1.534-74.134-7.295-110.871c-0.193-1.233-0.561-2.438-0.745-3.672c-0.106-0.709-0.299-1.718,0.066-2.118
		c0.711-0.78,1.729-0.051,2.353,0.369c0.901,0.606,1.585,1.557,2.303,2.409c11.069,13.143,20.087,27.691,28.953,42.34
		c14.724,24.328,26.902,49.862,37.225,76.375c13.278,34.102,21.795,69.334,26.504,105.524
		C471.892,376.206,472.958,392.175,473.308,408.18z"/>
	<path style="fill:#00AADC;" d="M264.594,474.442c-15.663-1.67-31.835-0.039-47.805-2.979c-20.368-3.75-41.081-5.482-61.253-10.447
		c-20.966-5.16-41.691-10.932-61.809-18.994c-20.313-8.14-39.819-17.896-59.141-28.007c-7.257-3.797-8.662-5.996-8.052-14.582
		c0.786-11.061,1.946-22.096,2.783-33.151c0.797-10.538,2.571-20.988,4.762-31.355c1.185-5.605,2.062-11.268,3.253-16.884
		c3.397-16.029,8.426-31.579,13.223-47.199c1.132-3.685,2.792-7.208,4.232-10.796c0.364-0.906,0.541-2.126,1.681-2.299
		c1.388-0.21,1.775,1.156,2.407,2.024c9.617,13.222,18.931,26.665,29.222,39.391c7.143,8.834,14.58,17.395,22.213,25.812
		c8.233,9.079,16.979,17.634,25.664,26.251c18.102,17.957,37.676,34.177,58.083,49.47c16.617,12.452,34.122,23.486,51.952,34.017
		c18.58,10.974,37.788,20.775,57.725,29.097c3.336,1.393,6.599,2.96,9.885,4.47c0.89,0.409,2.116,0.756,1.922,1.974
		c-0.19,1.194-1.504,1.224-2.439,1.351c-3.458,0.47-6.923,1.062-10.4,1.181c-8.105,0.278-16.183,1.091-24.316,0.91
		C273.911,473.599,269.424,474.159,264.594,474.442z"/>
	<path style="fill:#0087B9;" d="M62.232,244.9c2.931-8.365,6.356-15.986,9.922-23.528c13.067-27.634,28.867-53.622,46.872-78.33
		c14.453-19.833,30.317-38.405,47.99-55.399c20.85-20.049,43.406-37.976,67.936-53.365c3.809-2.389,7.747-4.6,11.384-7.227
		c2.903-2.097,5.455-1.846,8.279-0.113c13.529,8.306,26.792,17.012,39.444,26.607c17.247,13.08,33.458,27.357,48.388,43.032
		c7.489,7.862,14.599,16.085,21.835,24.185c0.877,0.982,2.239,2.055,1.661,3.532c-0.586,1.499-2.292,1.275-3.624,1.398
		c-23.78,2.2-47.33,5.963-70.603,11.23c-35.533,8.041-70.109,19.081-103.424,33.973c-15.636,6.989-31.019,14.461-46.031,22.686
		c-20.396,11.175-39.961,23.685-58.861,37.233c-5.582,4.001-11.096,8.098-16.645,12.145C65.566,243.826,64.423,244.817,62.232,244.9
		z"/>
	<path style="fill:#878C96;" d="M358.467,130.978c9.319-1.073,7.927-2.228,9.47,6.996c5.89,35.21,8.593,70.67,7.791,106.375
		c-1.249,55.584-10.447,109.818-27.614,162.708c-6.216,19.152-13.412,37.916-21.727,56.25c-0.67,1.479-0.794,3.606-3.213,3.582
		c-1.214-1.69-1.61-3.454-1.241-5.601c3.055-17.766,3.404-35.699,3.172-53.666c-0.333-25.721-4.512-50.852-11.503-75.554
		c-0.747-2.638-1.624-5.239-2.162-7.926c-5.95-18.06-12.947-35.699-21.96-52.473c-9.96-18.536-21.564-35.988-35.06-52.161
		c-1.905-2.283-4.152-4.36-5.001-7.371c-0.435-1.923,0.949-2.976,2.033-4.136c1.948-2.085,4.157-3.943,5.506-6.533
		c5.007-2.482,8.723-6.531,12.451-10.514c5.909-6.313,12.875-11.37,19.438-16.918c5.6-4.733,11.924-8.623,16.786-14.226
		c4.521-1.653,8.12-4.854,12.049-7.447c10.433-6.886,21.48-12.628,32.554-18.352C352.867,132.651,355.662,131.822,358.467,130.978z"
		/>
	<path style="fill:#E1E6EB;" d="M312.785,322.797c6.183,19.031,10.212,38.531,12.593,58.379c1.936,16.134,1.913,32.346,1.542,48.55
		c-0.285,12.472-1.982,24.827-3.747,37.163c-36.45-14.15-70.69-32.517-103.376-53.906c-23.026-15.068-44.689-31.84-65.082-50.319
		c-10.644-9.646-21.11-19.46-31.081-29.788c-17.883-18.523-34.139-38.416-49.262-59.24c-3.958-5.449-7.838-10.955-11.684-16.484
		c-0.801-1.152-2.172-2.261-1.201-4c2.313,0.262,4.125,1.388,5.918,2.875c21.641,17.95,45.39,32.449,71.047,43.986
		c14.165,6.369,28.803,11.228,43.619,15.685c1.929,0.58,3.855,1.054,5.874,0.388c1.006-0.332,1.973-0.2,2.821,0.504
		c1.713,1.332,3.671,2.123,5.764,2.57c15.127,3.231,30.39,5.418,45.837,6.469c5.976,0.407,11.937,0.516,17.913,0.668
		c16.245,0.413,32.342-1.183,48.406-3.319C310.053,322.797,311.414,322.763,312.785,322.797z"/>
	<path style="fill:#C8CDD2;" d="M189.651,316.841c-1.507,3.147-4.075,1.778-6.169,1.203c-10.582-2.904-21.053-6.2-31.272-10.199
		c-30.745-12.031-59.091-28.228-84.644-49.203c-2.109-1.731-4.058-3.656-6.081-5.49c15.422-12.955,32.027-24.277,48.835-35.312
		c38.311-25.153,79.485-44.48,122.632-59.647c29.731-10.451,60.241-17.972,91.378-22.944c11.335-1.81,22.668-3.552,34.135-4.272
		c-5.828,4.362-12.418,7.398-18.845,10.692c-9.794,5.02-19.006,10.97-28.129,17.082c-1.547,1.037-3.209,1.902-4.817,2.846
		c-4.474,1.648-7.813,5.025-11.43,7.868c-9.041,7.106-18.386,13.877-26.352,22.272c-3.1,3.267-6.122,6.624-9.621,9.494
		c-0.47,0.385-0.882,0.894-0.602,1.608c-2.787,3.071-5.574,6.143-8.361,9.214c-0.253,1.485-0.763,2.772-1.806,3.982
		c-14.167,16.438-26.258,34.324-36.541,53.404c-7.591,14.086-13.925,28.755-19.083,43.919
		C192.338,314.951,192.081,316.942,189.651,316.841z"/>
	<path style="fill:#C8CDD2;" d="M258.67,202.842c-0.662-1.348,0.358-2.063,1.086-2.888c12.877-14.581,28.248-26.262,43.831-37.696
		c0.921-0.676,1.877-1.292,3.088-0.659c-14.796,11.537-30,22.591-42.836,36.438C262.245,199.758,260.399,201.246,258.67,202.842z"/>
</g>
</svg>
